<svg version="1.1" id="Layer_1" xmlns="http://www.w3.org/2000/svg" xmlns:xlink="http://www.w3.org/1999/xlink" x="0" y="0" viewBox="0 0 150 150" xml:space="preserve"><style>.st0{fill:#fff}</style><path class="st0" d="M134.4 3.1H15.6C8.7 3.1 3.1 8.7 3.1 15.6v118.7c0 6.9 5.6 12.5 12.5 12.5h118.7c6.9 0 12.5-5.6 12.5-12.5V15.6c.1-6.9-5.5-12.5-12.4-12.5z"/><defs><path id="SVGID_1_" d="M138.9 0H11.1C5 0 0 4.8 0 10.8v128.4c0 6 5 10.8 11.1 10.8h127.8c6.1 0 11.1-4.8 11.1-10.8V10.8c0-6-5-10.8-11.1-10.8M44.5 127.8H22.2V56.2h22.2l.1 71.6zM33.4 46.4c-7.1 0-12.9-5.8-12.9-12.9s5.8-12.9 12.9-12.9 12.9 5.8 12.9 12.9c0 7.2-5.8 12.9-12.9 12.9m94.4 81.4h-22.2V93c0-8.3-.2-19-11.6-19-11.6 0-13.4 9-13.4 18.4v35.4H58.4V56.2h21.3V66h.3c3-5.6 10.2-11.6 21-11.6 22.5 0 26.7 14.8 26.7 34.1v39.3h.1z"/></defs><clipPath id="SVGID_2_"><use xlink:href="#SVGID_1_" overflow="visible"/></clipPath><g clip-path="url(#SVGID_2_)"><path fill="#cf0007" d="M-.3 66.6H150V82H-.3z"/><path fill="#e16745" d="M-.3 81.2H150V96H-.3z"/><path fill="#e7a33e" d="M-.3 95.8H150V110H-.3z"/><path fill="#7fc15e" d="M-.3 109.1H150V124H-.3z"/><path fill="#2199ac" d="M-.3 123.3H150V138H-.3z"/><path fill="#eef3f8" d="M-.3 0H150v13.3H-.3z"/><path fill="#fc9295" d="M-.3 13.3H150V27H-.3z"/><path fill="#70b5f9" d="M-.3 26.1H150V39H-.3z"/><path fill="#474139" d="M-.3 38.7H150V53H-.3z"/><path fill="#915907" d="M-.3 52.2H150V67H-.3z"/><path fill="#8344cc" d="M-.3 137.1H150V150H-.3z"/></g><g opacity=".15"><path d="M139 2c5 0 9 4 9 9v128c0 5-4 9-9 9H11c-5 0-9-4-9-9V11c0-5 4-9 9-9h128m0-2H11C4.9 0 0 4.9 0 11v128c0 6.1 4.9 11 11 11h128c6.1 0 11-4.9 11-11V11c0-6.1-4.9-11-11-11z"/></g></svg>
